<?xml version="1.0" encoding="UTF-8"?>
<svg width="25px" height="20px" viewBox="0 0 25 20" version="1.1" xmlns="http://www.w3.org/2000/svg" xmlns:xlink="http://www.w3.org/1999/xlink">
    <title>C5BB9E8F-8EDC-498B-A7D0-6EC1F9CF9CC0</title>
    <g id="Desktop" stroke="none" stroke-width="1" fill="none" fill-rule="evenodd">
        <g id="GFW---Blog---UI-kit" transform="translate(-314.000000, -2384.000000)" fill="#555555" fill-rule="nonzero">
            <g id="Icons/48px/Social/Facebook-Copy" transform="translate(302.000000, 2370.000000)">
                <path d="M36.6153846,16.3076923 C35.6923077,16.7692308 34.7692308,16.9230769 33.6923077,17.0769231 C34.7692308,16.4615385 35.5384615,15.5384615 35.8461538,14.3076923 C34.9230769,14.9230769 33.8461538,15.2307692 32.6153846,15.5384615 C31.6923077,14.6153846 30.3076923,14 28.9230769,14 C26.3076923,14 24,16.3076923 24,19.0769231 C24,19.5384615 24,19.8461538 24.1538462,20.1538462 C20,20 16.1538462,18 13.6923077,14.9230769 C13.2307692,15.6923077 13.0769231,16.4615385 13.0769231,17.5384615 C13.0769231,19.2307692 14,20.7692308 15.3846154,21.6923077 C14.6153846,21.6923077 13.8461538,21.3846154 13.0769231,21.0769231 C13.0769231,23.5384615 14.7692308,25.5384615 17.0769231,26 C16.6153846,26.1538462 16.1538462,26.1538462 15.6923077,26.1538462 C15.3846154,26.1538462 15.0769231,26.1538462 14.7692308,26 C15.3846154,28 17.2307692,29.5384615 19.5384615,29.5384615 C17.8461538,30.9230769 15.6923077,31.6923077 13.2307692,31.6923077 C12.7692308,31.6923077 12.4615385,31.6923077 12,31.6923077 C14.3076923,33.0769231 16.9230769,34 19.6923077,34 C28.9230769,34 34,26.3076923 34,19.6923077 C34,19.5384615 34,19.2307692 34,19.0769231 C35.0769231,18.3076923 36,17.3846154 36.6153846,16.3076923 Z" id="Shape"></path>
            </g>
        </g>
    </g>
</svg>