<?xml version="1.0" encoding="UTF-8"?>
<svg xmlns="http://www.w3.org/2000/svg" xmlns:xlink="http://www.w3.org/1999/xlink" width="25pt" height="25pt" viewBox="0 0 25 25" version="1.1">
<g id="surface9935804">
<rect x="0" y="0" width="25" height="25" style="fill:rgb(20%,20%,20%);fill-opacity:1;stroke:none;"/>
<path style=" stroke:none;fill-rule:nonzero;fill:rgb(100%,100%,100%);fill-opacity:1;" d="M 25 4.480469 C 24.0625 4.894531 23.125 5.207031 22.082031 5.3125 C 23.125 4.6875 23.957031 3.644531 24.375 2.5 C 23.332031 3.125 22.289062 3.539062 21.148438 3.75 C 20.105469 2.710938 18.75 2.082031 17.292969 2.082031 C 14.476562 2.082031 12.1875 4.375 12.1875 7.1875 C 12.1875 7.605469 12.1875 8.019531 12.292969 8.332031 C 8.019531 8.125 4.273438 6.144531 1.769531 3.019531 C 1.25 3.75 1.042969 4.6875 1.042969 5.625 C 1.042969 7.398438 1.976562 8.960938 3.332031 9.894531 C 2.5 9.789062 1.667969 9.582031 1.042969 9.269531 C 1.042969 9.269531 1.042969 9.269531 1.042969 9.375 C 1.042969 11.875 2.8125 13.957031 5.101562 14.375 C 4.6875 14.476562 4.273438 14.582031 3.75 14.582031 C 3.4375 14.582031 3.125 14.582031 2.8125 14.476562 C 3.4375 16.5625 5.3125 18.023438 7.605469 18.023438 C 5.835938 19.375 3.644531 20.207031 1.25 20.207031 C 0.835938 20.207031 0.414062 20.207031 0 20.105469 C 2.289062 21.5625 5 22.394531 7.8125 22.394531 C 17.292969 22.394531 22.394531 14.582031 22.394531 7.8125 C 22.394531 7.605469 22.394531 7.398438 22.394531 7.1875 C 23.4375 6.457031 24.273438 5.523438 25 4.480469 "/>
</g>
</svg>
