<?xml version="1.0" encoding="UTF-8"?>
<svg width="62px" height="61px" viewBox="0 0 62 61" version="1.1" xmlns="http://www.w3.org/2000/svg" xmlns:xlink="http://www.w3.org/1999/xlink">
    <title>7F3CC618-EF8C-4E9A-844E-0489513E8A70</title>
    <g id="Desktop" stroke="none" stroke-width="1" fill="none" fill-rule="evenodd">
        <g id="GFW---Help-Center---Home" transform="translate(-130.000000, -627.000000)" fill="#97BD3D">
            <g id="Group-14" transform="translate(118.000000, 595.000000)">
                <path d="M39.265706,23.6647307 C36.4374776,22.0852444 32.4922988,23.3864197 31.6952651,26.8681757 C30.1342926,33.6796208 27.9196974,40.1797594 25.3465749,46.6440331 C23.232643,51.9563291 31.3739696,54.994796 33.9691553,50.4198806 L33.9857027,50.4342265 C35.7797179,46.9323862 37.3007009,43.3416012 38.6134622,39.6647407 C46.7837467,59.2440589 43.8769181,80.5534957 34.1277347,99.6780482 C33.3886169,101.125552 35.2832956,102.867147 36.4112775,101.510023 C50.4393458,84.6406497 52.1368344,59.6285297 44.6505096,39.1152918 C45.4213432,39.5643192 46.1894188,40.0176504 46.9616314,40.4666779 C52.880089,43.9096999 58.2152503,34.3954825 52.2705927,31.0170172 C47.9406866,28.5552565 43.6121595,26.0934958 39.265706,23.6647307 Z" id="Fill-47" transform="translate(39.932927, 62.500000) scale(-1, -1) rotate(-49.000000) translate(-39.932927, -62.500000) "></path>
            </g>
        </g>
    </g>
</svg>