<?xml version="1.0" encoding="UTF-8"?>
<svg width="32px" height="29px" viewBox="0 0 32 29" version="1.1" xmlns="http://www.w3.org/2000/svg" xmlns:xlink="http://www.w3.org/1999/xlink">
    <title>D7A04CC7-1B19-4554-9664-78925D8C13D4</title>
    <g id="Desktop" stroke="none" stroke-width="1" fill="none" fill-rule="evenodd">
        <g id="GFW---Help-Center---Home" transform="translate(-248.000000, -1818.000000)" fill="#97BD3D" fill-rule="nonzero">
            <g id="Group-10" transform="translate(248.000000, 1818.000000)">
                <path d="M32,-5.68434189e-14 L32,24.2076511 L19.9625608,28.5993287 L10.979,24.5934913 L0,29 L0,4.76632474 L11.0204686,0.343608379 L20.037,4.36403616 L32,-5.68434189e-14 Z M10.979,2.52098159 L2,6.12381716 L2,26.0352276 L11.0204686,22.4161181 L20.037,26.4365459 L30,22.8016049 L30,2.86410879 L19.9625608,6.52681894 L10.979,2.52098159 Z M5.5,16.481844 C6.32842712,16.481844 7,17.1556303 7,17.9867879 C7,18.8179454 6.32842712,19.4917317 5.5,19.4917317 C4.67157288,19.4917317 4,18.8179454 4,17.9867879 C4,17.1556303 4.67157288,16.481844 5.5,16.481844 Z M12.5,15.4785481 C13.3284271,15.4785481 14,16.1523344 14,16.983492 C14,17.8146495 13.3284271,18.4884358 12.5,18.4884358 C11.6715729,18.4884358 11,17.8146495 11,16.983492 C11,16.1523344 11.6715729,15.4785481 12.5,15.4785481 Z M26.2928932,8.0724451 L27.7071068,9.49131976 L25.414,11.791 L27.7071068,14.0922205 L26.2928932,15.5110951 L24,13.211 L21.7071068,15.5110951 L20.2928932,14.0922205 L22.585,11.791 L20.2928932,9.49131976 L21.7071068,8.0724451 L24,10.372 L26.2928932,8.0724451 Z M8.5,12.4686604 C9.32842712,12.4686604 10,13.1424467 10,13.9736043 C10,14.8047618 9.32842712,15.4785481 8.5,15.4785481 C7.67157288,15.4785481 7,14.8047618 7,13.9736043 C7,13.1424467 7.67157288,12.4686604 8.5,12.4686604 Z M16.5,12.4686604 C17.3284271,12.4686604 18,13.1424467 18,13.9736043 C18,14.8047618 17.3284271,15.4785481 16.5,15.4785481 C15.6715729,15.4785481 15,14.8047618 15,13.9736043 C15,13.1424467 15.6715729,12.4686604 16.5,12.4686604 Z" id="how-to"></path>
            </g>
        </g>
    </g>
</svg>