<?xml version="1.0" encoding="UTF-8"?>
<svg width="32px" height="32px" viewBox="0 0 32 32" version="1.1" xmlns="http://www.w3.org/2000/svg" xmlns:xlink="http://www.w3.org/1999/xlink">
    <title>55E35D91-FCE3-48EB-B2B4-F040BDCD6D5D</title>
    <g id="Desktop" stroke="none" stroke-width="1" fill="none" fill-rule="evenodd">
        <g id="GFW---Help-Center---Home" transform="translate(-220.000000, -2079.000000)" stroke="#97BD3D" stroke-width="2">
            <g id="question-circle-copy" transform="translate(221.000000, 2080.000000)">
                <path d="M10.6681034,10.6681034 C10.6684802,8.69538258 12.1492937,7.03708206 14.1093994,6.81434142 C16.0695051,6.59160077 17.8846454,7.87535879 18.3276451,9.79769568 C18.7706447,11.7200326 17.7004163,13.6687194 15.8405172,14.3262931 C15.0651829,14.6004151 14.5469827,15.3336684 14.5474138,16.1560345 L14.5474138,17.4568966" id="Path" stroke-linecap="round" stroke-linejoin="round"></path>
                <path d="M14.5474138,21.3362069 C14.2796033,21.3362069 14.0625,21.5533102 14.0625,21.8211207 C14.0625,22.0889312 14.2796033,22.3060345 14.5474138,22.3060345 C14.8152243,22.3060345 15.0323276,22.0889312 15.0323276,21.8211207 C15.0323276,21.5533102 14.8152243,21.3362069 14.5474138,21.3362069" id="Path" stroke-linecap="round" stroke-linejoin="round"></path>
                <circle id="Oval" cx="14.5474138" cy="14.5474138" r="14.5474138"></circle>
            </g>
        </g>
    </g>
</svg>