<?xml version="1.0" encoding="UTF-8"?>
<svg width="33px" height="33px" viewBox="0 0 33 33" version="1.1" xmlns="http://www.w3.org/2000/svg" xmlns:xlink="http://www.w3.org/1999/xlink">
    <title>F1C82C05-3312-4F6F-9433-758680DF1702</title>
    <g id="Desktop" stroke="none" stroke-width="1" fill="none" fill-rule="evenodd">
        <g id="GFW---Help-Center---Home" transform="translate(-601.000000, -2078.000000)" fill="#97BD3D" fill-rule="nonzero">
            <path d="M615.51869,2078.111 C616.896161,2077.963 618.103839,2077.963 619.48131,2078.111 L619.48131,2078.111 L620.187792,2078.1869 L621.503,2083.851 L621.799049,2083.96604 L622.041737,2084.06684 L622.211,2084.142 L627.143039,2081.08453 L627.694139,2081.52334 C628.810184,2082.412 629.653461,2083.25943 630.478167,2084.33664 L630.478167,2084.33664 L630.897459,2084.8843 L627.868,2089.778 L627.913939,2089.87879 C628.00066,2090.07593 628.077987,2090.26842 628.148768,2090.46397 L628.148768,2090.46397 L628.161,2090.5 L633.810204,2091.82439 L633.887503,2092.52732 C634.037499,2093.89135 634.037499,2095.11567 633.887503,2096.47969 L633.887503,2096.47969 L633.809807,2097.18624 L628.161,2098.481 L628.13814,2098.55028 C628.064424,2098.75499 627.985081,2098.95289 627.898208,2099.14837 L627.898208,2099.14837 L627.871,2099.206 L630.90143,2104.13261 L630.47003,2104.68087 C629.611381,2105.7721 628.758637,2106.63607 627.694139,2107.48368 L627.694139,2107.48368 L627.143039,2107.92249 L622.211,2104.864 L622.041737,2104.94017 C621.883294,2105.00815 621.71902,2105.07416 621.543713,2105.14071 L621.543713,2105.14071 L621.503,2105.155 L620.190542,2110.77673 L619.502355,2110.86546 C618.111,2111.04485 616.889,2111.04485 615.497645,2110.86546 L615.497645,2110.86546 L614.809458,2110.77673 L613.496,2105.155 L613.200951,2105.04098 L612.958263,2104.94017 L612.788,2104.864 L607.856961,2107.92249 L607.305861,2107.48368 C606.241363,2106.63607 605.388619,2105.7721 604.52997,2104.68087 L604.52997,2104.68087 L604.09857,2104.13261 L607.128,2099.206 L607.101792,2099.14837 C607.014919,2098.95289 606.935576,2098.75499 606.86186,2098.55028 L606.86186,2098.55028 L606.838,2098.481 L601.190193,2097.18624 L601.112497,2096.47969 C600.962501,2095.11567 600.962501,2093.89135 601.112497,2092.52732 L601.112497,2092.52732 L601.189796,2091.82439 L606.838,2090.5 L606.962669,2090.17198 L607.086061,2089.87879 L607.131,2089.778 L604.102541,2084.8843 L604.521833,2084.33664 C605.346539,2083.25943 606.189816,2082.412 607.305861,2081.52334 L607.305861,2081.52334 L607.856961,2081.08453 L612.788,2084.142 L612.958263,2084.06684 C613.116706,2083.99887 613.28098,2083.93286 613.456287,2083.86631 L613.456287,2083.86631 L613.496,2083.851 L614.812208,2078.1869 Z M618.24261,2080.01829 C617.743049,2079.9939 617.256951,2079.9939 616.75739,2080.01829 L616.75739,2080.01829 L616.435,2080.038 L615.196526,2085.37206 L614.418389,2085.64296 C613.928275,2085.81944 613.562396,2085.97486 613.190104,2086.16854 L613.190104,2086.16854 L612.685292,2086.43117 L608.013,2083.534 L607.926826,2083.60868 C607.433958,2084.04041 607.004785,2084.47272 606.59505,2084.95192 L606.59505,2084.95192 L606.538,2085.019 L609.415145,2089.66777 L609.161916,2090.16838 C608.890553,2090.70484 608.722034,2091.12127 608.577026,2091.62294 L608.577026,2091.62294 L608.414477,2092.1853 L603.039,2093.445 L603.018462,2093.7626 C602.993846,2094.26024 602.993846,2094.74678 603.018462,2095.24442 L603.018462,2095.24442 L603.039,2095.558 L608.413574,2096.79053 L608.577026,2097.356 C608.732565,2097.8941 608.907711,2098.33268 609.152255,2098.79195 L609.152255,2098.79195 L609.421624,2099.29784 L606.541,2103.979 L606.674651,2104.13528 C607.058568,2104.57328 607.450973,2104.97017 607.879155,2105.35271 L607.879155,2105.35271 L608.015,2105.47 L612.685292,2102.57585 L613.190104,2102.83848 C613.624444,2103.06444 614.050056,2103.23832 614.674404,2103.45432 L614.674404,2103.45432 L615.19583,2103.63472 L616.437,2108.953 L616.642767,2108.97047 C617.2214,2109.00984 617.7786,2109.00984 618.357233,2108.97047 L618.357233,2108.97047 L618.562,2108.953 L619.80417,2103.63472 L620.581611,2103.36406 C621.071725,2103.18758 621.437604,2103.03216 621.809896,2102.83848 L621.809896,2102.83848 L622.314708,2102.57585 L626.984,2105.47 L627.120845,2105.35271 C627.549027,2104.97017 627.941432,2104.57328 628.325349,2104.13528 L628.325349,2104.13528 L628.458,2103.979 L625.578376,2099.29784 L625.847745,2098.79195 C626.092289,2098.33268 626.267435,2097.8941 626.422974,2097.356 L626.422974,2097.356 L626.586426,2096.79053 L631.96,2095.558 L631.981538,2095.24442 C632.006154,2094.74678 632.006154,2094.26024 631.981538,2093.7626 L631.981538,2093.7626 L631.96,2093.445 L626.585523,2092.1853 L626.422974,2091.62294 C626.277966,2091.12127 626.109447,2090.70484 625.838084,2090.16838 L625.838084,2090.16838 L625.584855,2089.66777 L628.461,2085.019 L628.40495,2084.95192 C627.995215,2084.47272 627.566042,2084.04041 627.073174,2083.60868 L627.073174,2083.60868 L626.986,2083.534 L622.314708,2086.43117 L621.809896,2086.16854 C621.375556,2085.94258 620.949944,2085.76869 620.325596,2085.5527 L620.325596,2085.5527 L619.803474,2085.37206 L618.564,2080.038 Z M617.5,2090 C619.985281,2090 622,2092.01472 622,2094.5 C622,2096.98528 619.985281,2099 617.5,2099 C615.014719,2099 613,2096.98528 613,2094.5 C613,2092.01472 615.014719,2090 617.5,2090 Z M617.5,2092 C616.119288,2092 615,2093.11929 615,2094.5 C615,2095.88071 616.119288,2097 617.5,2097 C618.880712,2097 620,2095.88071 620,2094.5 C620,2093.11929 618.880712,2092 617.5,2092 Z" id="Combined-Shape"></path>
        </g>
    </g>
</svg>