<svg width="31" height="30" viewBox="0 0 31 30" fill="none" xmlns="http://www.w3.org/2000/svg">
<path fill-rule="evenodd" clip-rule="evenodd" d="M15.4229 0C23.7015 0 30.4229 6.72139 30.4229 15C30.4229 23.2786 23.7015 30 15.4229 30C7.14425 30 0.422852 23.2786 0.422852 15C0.422852 6.72139 7.14425 0 15.4229 0ZM15.4229 5.62488C12.8766 5.62488 12.5577 5.63582 11.5577 5.68159C10.5577 5.72736 9.87808 5.88557 9.28206 6.11741C8.65964 6.35847 8.09443 6.72686 7.62264 7.199C7.15084 7.67114 6.78286 8.23661 6.54225 8.8592C6.31091 9.45622 6.1522 10.1368 6.10693 11.1348C6.06166 12.1328 6.05021 12.4537 6.05021 15C6.05021 17.5463 6.06116 17.8652 6.10693 18.8652C6.1527 19.8652 6.30842 20.5473 6.54225 21.1408C6.78323 21.7636 7.15163 22.3293 7.62385 22.8015C8.09608 23.2737 8.66171 23.6421 9.28454 23.8831C9.88156 24.1144 10.5622 24.2731 11.5602 24.3184C12.5582 24.3637 12.8791 24.3751 15.4253 24.3751C17.9716 24.3751 18.2905 24.3642 19.2905 24.3184C20.2905 24.2726 20.9701 24.1144 21.5661 23.8831C22.189 23.6421 22.7546 23.2737 23.2268 22.8015C23.699 22.3293 24.0674 21.7636 24.3084 21.1408C24.5398 20.5438 24.6985 19.8632 24.7437 18.8652C24.789 17.8672 24.8005 17.5463 24.8005 15C24.8005 12.4537 24.7895 12.1348 24.7437 11.1348C24.698 10.1348 24.5398 9.45522 24.3084 8.8592C24.067 8.2365 23.6982 7.67111 23.2255 7.1993C22.7528 6.72748 22.1868 6.35966 21.5636 6.1194C20.9666 5.88756 20.286 5.72886 19.288 5.68358C18.29 5.63831 17.9691 5.62488 15.4229 5.62488ZM15.4229 7.31642C17.9263 7.31642 18.2224 7.32587 19.2114 7.37065C20.1253 7.41244 20.6214 7.56517 20.9527 7.69353C21.3571 7.84957 21.7243 8.08852 22.0308 8.39501C22.3373 8.7015 22.5763 9.06875 22.7323 9.47313C22.8607 9.80348 23.0134 10.2995 23.0552 11.2144C23.1 12.2035 23.1094 12.4995 23.1094 15.003C23.1094 17.5065 23.1 17.8025 23.0552 18.7915C23.0134 19.7055 22.8607 20.2015 22.7323 20.5328C22.5763 20.9372 22.3373 21.3045 22.0308 21.611C21.7243 21.9175 21.3571 22.1564 20.9527 22.3124C20.6224 22.4408 20.1263 22.5935 19.2114 22.6353C18.2229 22.6801 17.9263 22.6896 15.4229 22.6896C12.9194 22.6896 12.6229 22.6801 11.6343 22.6353C10.7204 22.5935 10.2243 22.4408 9.893 22.3124C9.48862 22.1564 9.12137 21.9175 8.81488 21.611C8.50838 21.3045 8.26944 20.9372 8.1134 20.5328C7.98504 20.199 7.83579 19.7015 7.79151 18.7886C7.74673 17.7995 7.73728 17.5035 7.73728 15C7.73728 12.4965 7.74673 12.2005 7.79151 11.2114C7.83579 10.2985 7.98504 9.80099 8.11439 9.47114C8.27043 9.06676 8.50938 8.69951 8.81587 8.39302C9.12236 8.08653 9.48961 7.84758 9.894 7.69154C10.2243 7.56318 10.7204 7.41045 11.6353 7.36866C12.6233 7.32388 12.9194 7.31343 15.4229 7.31343V7.31642ZM15.4229 10.1876C14.4706 10.1875 13.5398 10.4697 12.748 10.9987C11.9562 11.5277 11.339 12.2795 10.9745 13.1592C10.6101 14.039 10.5147 15.007 10.7004 15.9409C10.8861 16.8749 11.3446 17.7328 12.0179 18.4061C12.6912 19.0795 13.549 19.5381 14.4829 19.7239C15.4168 19.9097 16.3849 19.8144 17.2646 19.45C18.1444 19.0856 18.8963 18.4685 19.4254 17.6768C19.9544 16.8851 20.2368 15.9542 20.2368 15.002C20.2367 13.7253 19.7294 12.5008 18.8267 11.598C17.924 10.6952 16.6996 10.1878 15.4229 10.1876ZM15.4229 18.1269C14.8048 18.1269 14.2006 17.9436 13.6868 17.6002C13.1729 17.2569 12.7724 16.7688 12.5358 16.1978C12.2993 15.6268 12.2374 14.9985 12.358 14.3924C12.4786 13.7862 12.7762 13.2294 13.2132 12.7924C13.6503 12.3553 14.2071 12.0577 14.8132 11.9372C15.4194 11.8166 16.0477 11.8785 16.6187 12.115C17.1897 12.3515 17.6777 12.752 18.0211 13.2659C18.3645 13.7798 18.5477 14.3839 18.5477 15.002C18.5472 15.8304 18.2177 16.6247 17.6318 17.2103C17.0458 17.7959 16.2513 18.1249 15.4229 18.1249V18.1269ZM21.5522 9.99751C21.5522 10.22 21.4862 10.4375 21.3626 10.6225C21.239 10.8074 21.0633 10.9516 20.8578 11.0368C20.6523 11.1219 20.4261 11.1442 20.2079 11.1008C19.9897 11.0574 19.7892 10.9502 19.6319 10.7929C19.4746 10.6356 19.3675 10.4352 19.3241 10.217C19.2807 9.99876 19.3029 9.77258 19.3881 9.56704C19.4732 9.3615 19.6174 9.18582 19.8024 9.06221C19.9874 8.93861 20.2048 8.87264 20.4273 8.87264C20.7253 8.87264 21.0111 8.99088 21.222 9.2014C21.4329 9.41193 21.5517 9.69753 21.5522 9.99552V9.99751Z" fill="#97BD3D"/>
</svg>
