<svg width="21" height="20" viewBox="0 0 21 20" fill="none" xmlns="http://www.w3.org/2000/svg">
<path d="M14.4179 12.4615H13.5145L13.1943 12.1667C14.315 10.9224 14.9897 9.30692 14.9897 7.54955C14.9897 3.63095 11.662 0.45459 7.55684 0.45459C3.45164 0.45459 0.124023 3.63095 0.124023 7.54955C0.124023 11.4682 3.45164 14.6445 7.55684 14.6445C9.39789 14.6445 11.0903 14.0005 12.3939 12.9308L12.7026 13.2364V14.0988L18.4202 19.5455L20.124 17.9191L14.4179 12.4615ZM7.55684 12.4615C4.7095 12.4615 2.41104 10.2675 2.41104 7.54955C2.41104 4.83164 4.7095 2.63766 7.55684 2.63766C10.4042 2.63766 12.7026 4.83164 12.7026 7.54955C12.7026 10.2675 10.4042 12.4615 7.55684 12.4615Z" fill="white"/>
</svg>
