<svg width="32" height="30" viewBox="0 0 32 30" fill="none" xmlns="http://www.w3.org/2000/svg">
<path fill-rule="evenodd" clip-rule="evenodd" d="M15.9229 0C24.4774 0 31.4229 6.72139 31.4229 15C31.4229 23.2786 24.4774 30 15.9229 30C7.36829 30 0.422852 23.2786 0.422852 15C0.422852 6.72139 7.36829 0 15.9229 0ZM13.1925 22.9781C20.0516 22.9781 23.8019 17.4776 23.8019 12.7109C23.8019 12.5537 23.8019 12.3965 23.7942 12.2473C24.5246 11.7349 25.1555 11.1014 25.6578 10.3761C24.9768 10.667 24.2551 10.8588 23.5161 10.9453C24.2958 10.4949 24.8787 9.78438 25.155 8.94726C24.4233 9.36606 23.6238 9.66211 22.7901 9.82289C22.2781 9.29605 21.6144 8.93015 20.885 8.77258C20.1556 8.61501 19.3942 8.67304 18.6992 8.93915C18.0043 9.20525 17.408 9.66718 16.9875 10.2651C16.567 10.863 16.3417 11.5693 16.3408 12.2925C16.3394 12.5699 16.3739 12.8464 16.4436 13.1154C14.9607 13.0442 13.5099 12.6716 12.1856 12.0219C10.8613 11.3721 9.69321 10.4598 8.75738 9.34428C8.28148 10.1385 8.13651 11.0784 8.35202 11.9724C8.56753 12.8665 9.12729 13.6473 9.91718 14.1557C9.32618 14.1402 8.74784 13.9866 8.23146 13.708V13.7527C8.23171 14.5853 8.52921 15.3922 9.0736 16.0369C9.61799 16.6816 10.3758 17.1245 11.2189 17.2905C10.8989 17.3753 10.5687 17.4182 10.2369 17.4179C10.0006 17.4181 9.76487 17.3956 9.53315 17.3507C9.7698 18.0681 10.2327 18.6957 10.8569 19.1453C11.481 19.595 12.2351 19.8441 13.0131 19.8577C11.6911 20.8592 10.06 21.4023 8.38106 21.4C8.08379 21.4022 7.78669 21.3856 7.49167 21.3503C9.18665 22.4193 11.1672 22.9863 13.1904 22.9816L13.1925 22.9781Z" fill="#97BD3D"/>
</svg>
